<?xml version="1.0" encoding="UTF-8" standalone="no"?>
<!DOCTYPE svg PUBLIC "-//W3C//DTD SVG 1.1//EN"
 "http://www.w3.org/Graphics/SVG/1.1/DTD/svg11.dtd">
<!-- Generated by graphviz version 2.43.0 (0)
 -->
<!-- Title: src/neighbours.cpp Pages: 1 -->
<svg width="1061pt" height="258pt"
 viewBox="0.00 0.00 1060.50 258.00" xmlns="http://www.w3.org/2000/svg" xmlns:xlink="http://www.w3.org/1999/xlink">
<g id="graph0" class="graph" transform="scale(1 1) rotate(0) translate(4 254)">
<title>src/neighbours.cpp</title>
<!-- Node1 -->
<g id="Node000001" class="node">
<title>Node1</title>
<g id="a_Node000001"><a xlink:title=" ">
<polygon fill="#999999" stroke="#666666" points="158,-250 50,-250 50,-231 158,-231 158,-250"/>
<text text-anchor="middle" x="104" y="-238" font-family="Helvetica,sans-Serif" font-size="10.00">src/neighbours.cpp</text>
</a>
</g>
</g>
<!-- Node2 -->
<g id="Node000002" class="node">
<title>Node2</title>
<g id="a_Node000002"><a xlink:title=" ">
<polygon fill="#e0e0e0" stroke="#999999" points="60,-79.5 0,-79.5 0,-60.5 60,-60.5 60,-79.5"/>
<text text-anchor="middle" x="30" y="-67.5" font-family="Helvetica,sans-Serif" font-size="10.00">iostream</text>
</a>
</g>
</g>
<!-- Node1&#45;&gt;Node2 -->
<g id="edge1_Node000001_Node000002" class="edge">
<title>Node1&#45;&gt;Node2</title>
<g id="a_edge1_Node000001_Node000002"><a xlink:title=" ">
<path fill="none" stroke="#63b8ff" d="M100.23,-230.91C88.7,-204.67 53.76,-125.11 37.94,-89.08"/>
<polygon fill="#63b8ff" stroke="#63b8ff" points="41.08,-87.52 33.85,-79.77 34.67,-90.34 41.08,-87.52"/>
</a>
</g>
</g>
<!-- Node3 -->
<g id="Node000003" class="node">
<title>Node3</title>
<g id="a_Node000003"><a xlink:title=" ">
<polygon fill="#e0e0e0" stroke="#999999" points="129.5,-79.5 78.5,-79.5 78.5,-60.5 129.5,-60.5 129.5,-79.5"/>
<text text-anchor="middle" x="104" y="-67.5" font-family="Helvetica,sans-Serif" font-size="10.00">math.h</text>
</a>
</g>
</g>
<!-- Node1&#45;&gt;Node3 -->
<g id="edge2_Node000001_Node000003" class="edge">
<title>Node1&#45;&gt;Node3</title>
<g id="a_edge2_Node000001_Node000003"><a xlink:title=" ">
<path fill="none" stroke="#63b8ff" d="M104,-230.91C104,-204.89 104,-126.47 104,-90.01"/>
<polygon fill="#63b8ff" stroke="#63b8ff" points="107.5,-89.77 104,-79.77 100.5,-89.77 107.5,-89.77"/>
</a>
</g>
</g>
<!-- Node4 -->
<g id="Node000004" class="node">
<title>Node4</title>
<g id="a_Node000004"><a xlink:href="neighbours_8hpp.html" target="_top" xlink:title="Header file for neighbour list generation.">
<polygon fill="white" stroke="#666666" points="369,-195 277,-195 277,-176 369,-176 369,-195"/>
<text text-anchor="middle" x="323" y="-183" font-family="Helvetica,sans-Serif" font-size="10.00">neighbours.hpp</text>
</a>
</g>
</g>
<!-- Node1&#45;&gt;Node4 -->
<g id="edge3_Node000001_Node000004" class="edge">
<title>Node1&#45;&gt;Node4</title>
<g id="a_edge3_Node000001_Node000004"><a xlink:title=" ">
<path fill="none" stroke="#63b8ff" d="M139.19,-230.98C176.83,-221.87 236.66,-207.4 277.77,-197.45"/>
<polygon fill="#63b8ff" stroke="#63b8ff" points="278.64,-200.84 287.54,-195.08 277,-194.03 278.64,-200.84"/>
</a>
</g>
</g>
<!-- Node5 -->
<g id="Node000005" class="node">
<title>Node5</title>
<g id="a_Node000005"><a xlink:href="generic_8hpp.html" target="_top" xlink:title="File for containing generic or common functions.">
<polygon fill="white" stroke="#666666" points="360,-140 286,-140 286,-121 360,-121 360,-140"/>
<text text-anchor="middle" x="323" y="-128" font-family="Helvetica,sans-Serif" font-size="10.00">generic.hpp</text>
</a>
</g>
</g>
<!-- Node4&#45;&gt;Node5 -->
<g id="edge4_Node000004_Node000005" class="edge">
<title>Node4&#45;&gt;Node5</title>
<g id="a_edge4_Node000004_Node000005"><a xlink:title=" ">
<path fill="none" stroke="#63b8ff" d="M323,-175.75C323,-168.8 323,-158.85 323,-150.13"/>
<polygon fill="#63b8ff" stroke="#63b8ff" points="326.5,-150.09 323,-140.09 319.5,-150.09 326.5,-150.09"/>
</a>
</g>
</g>
<!-- Node7 -->
<g id="Node000007" class="node">
<title>Node7</title>
<g id="a_Node000007"><a xlink:href="mol__sys_8hpp.html" target="_top" xlink:title="The main molecular system handler.">
<polygon fill="white" stroke="#666666" points="587,-79.5 509,-79.5 509,-60.5 587,-60.5 587,-79.5"/>
<text text-anchor="middle" x="548" y="-67.5" font-family="Helvetica,sans-Serif" font-size="10.00">mol_sys.hpp</text>
</a>
</g>
</g>
<!-- Node4&#45;&gt;Node7 -->
<g id="edge22_Node000004_Node000007" class="edge">
<title>Node4&#45;&gt;Node7</title>
<g id="a_edge22_Node000004_Node000007"><a xlink:title=" ">
<path fill="none" stroke="#63b8ff" d="M339.91,-175.97C378.84,-156.33 475.02,-107.82 521.72,-84.26"/>
<polygon fill="#63b8ff" stroke="#63b8ff" points="523.54,-87.26 530.89,-79.63 520.39,-81.01 523.54,-87.26"/>
</a>
</g>
</g>
<!-- Node5&#45;&gt;Node2 -->
<g id="edge6_Node000005_Node000002" class="edge">
<title>Node5&#45;&gt;Node2</title>
<g id="a_edge6_Node000005_Node000002"><a xlink:title=" ">
<path fill="none" stroke="#63b8ff" d="M285.98,-125.04C236.14,-118.57 144.95,-105.13 69,-85 66.51,-84.34 63.94,-83.59 61.38,-82.79"/>
<polygon fill="#63b8ff" stroke="#63b8ff" points="62.25,-79.38 51.66,-79.52 60.02,-86.02 62.25,-79.38"/>
</a>
</g>
</g>
<!-- Node5&#45;&gt;Node3 -->
<g id="edge7_Node000005_Node000003" class="edge">
<title>Node5&#45;&gt;Node3</title>
<g id="a_edge7_Node000005_Node000003"><a xlink:title=" ">
<path fill="none" stroke="#63b8ff" d="M285.92,-122.16C248.45,-114.37 189.1,-100.99 139,-85 137.33,-84.47 135.62,-83.89 133.91,-83.29"/>
<polygon fill="#63b8ff" stroke="#63b8ff" points="134.77,-79.87 124.18,-79.64 132.31,-86.43 134.77,-79.87"/>
</a>
</g>
</g>
<!-- Node6 -->
<g id="Node000006" class="node">
<title>Node6</title>
<g id="a_Node000006"><a xlink:title=" ">
<polygon fill="#e0e0e0" stroke="#999999" points="290,-19 248,-19 248,0 290,0 290,-19"/>
<text text-anchor="middle" x="269" y="-7" font-family="Helvetica,sans-Serif" font-size="10.00">array</text>
</a>
</g>
</g>
<!-- Node5&#45;&gt;Node6 -->
<g id="edge5_Node000005_Node000006" class="edge">
<title>Node5&#45;&gt;Node6</title>
<g id="a_edge5_Node000005_Node000006"><a xlink:title=" ">
<path fill="none" stroke="#63b8ff" d="M360.21,-123.94C411.14,-114.77 492.92,-93.55 462,-55 415.85,2.53 371.59,-36.76 300,-19 299.9,-18.98 299.8,-18.95 299.7,-18.93"/>
<polygon fill="#63b8ff" stroke="#63b8ff" points="300.87,-15.61 290.31,-16.49 299.11,-22.39 300.87,-15.61"/>
</a>
</g>
</g>
<!-- Node5&#45;&gt;Node7 -->
<g id="edge8_Node000005_Node000007" class="edge">
<title>Node5&#45;&gt;Node7</title>
<g id="a_edge8_Node000005_Node000007"><a xlink:title=" ">
<path fill="none" stroke="#63b8ff" d="M356.31,-120.94C390.97,-112.01 446.81,-97.6 495,-85 498.57,-84.07 502.28,-83.09 505.99,-82.12"/>
<polygon fill="#63b8ff" stroke="#63b8ff" points="507,-85.47 515.78,-79.54 505.21,-78.7 507,-85.47"/>
</a>
</g>
</g>
<!-- Node17 -->
<g id="Node000017" class="node">
<title>Node17</title>
<g id="a_Node000017"><a xlink:title=" ">
<polygon fill="#e0e0e0" stroke="#999999" points="270,-85 148,-85 148,-55 270,-55 270,-85"/>
<text text-anchor="start" x="156" y="-73" font-family="Helvetica,sans-Serif" font-size="10.00">boost/math/constants</text>
<text text-anchor="middle" x="209" y="-62" font-family="Helvetica,sans-Serif" font-size="10.00">/constants.hpp</text>
</a>
</g>
</g>
<!-- Node5&#45;&gt;Node17 -->
<g id="edge19_Node000005_Node000017" class="edge">
<title>Node5&#45;&gt;Node17</title>
<g id="a_edge19_Node000005_Node000017"><a xlink:title=" ">
<path fill="none" stroke="#63b8ff" d="M306.18,-120.87C290.28,-112.71 265.9,-100.2 245.53,-89.75"/>
<polygon fill="#63b8ff" stroke="#63b8ff" points="247,-86.57 236.51,-85.11 243.8,-92.79 247,-86.57"/>
</a>
</g>
</g>
<!-- Node18 -->
<g id="Node000018" class="node">
<title>Node18</title>
<g id="a_Node000018"><a xlink:title=" ">
<polygon fill="#e0e0e0" stroke="#999999" points="357.5,-79.5 288.5,-79.5 288.5,-60.5 357.5,-60.5 357.5,-79.5"/>
<text text-anchor="middle" x="323" y="-67.5" font-family="Helvetica,sans-Serif" font-size="10.00">Eigen/Core</text>
</a>
</g>
</g>
<!-- Node5&#45;&gt;Node18 -->
<g id="edge20_Node000005_Node000018" class="edge">
<title>Node5&#45;&gt;Node18</title>
<g id="a_edge20_Node000005_Node000018"><a xlink:title=" ">
<path fill="none" stroke="#63b8ff" d="M323,-120.87C323,-112.75 323,-100.31 323,-89.89"/>
<polygon fill="#63b8ff" stroke="#63b8ff" points="326.5,-89.67 323,-79.67 319.5,-89.67 326.5,-89.67"/>
</a>
</g>
</g>
<!-- Node19 -->
<g id="Node000019" class="node">
<title>Node19</title>
<g id="a_Node000019"><a xlink:title=" ">
<polygon fill="#e0e0e0" stroke="#999999" points="452.5,-79.5 375.5,-79.5 375.5,-60.5 452.5,-60.5 452.5,-79.5"/>
<text text-anchor="middle" x="414" y="-67.5" font-family="Helvetica,sans-Serif" font-size="10.00">Eigen/Dense</text>
</a>
</g>
</g>
<!-- Node5&#45;&gt;Node19 -->
<g id="edge21_Node000005_Node000019" class="edge">
<title>Node5&#45;&gt;Node19</title>
<g id="a_edge21_Node000005_Node000019"><a xlink:title=" ">
<path fill="none" stroke="#63b8ff" d="M336.43,-120.87C351.08,-111.45 374.76,-96.23 392.1,-85.08"/>
<polygon fill="#63b8ff" stroke="#63b8ff" points="394,-88.02 400.52,-79.67 390.21,-82.13 394,-88.02"/>
</a>
</g>
</g>
<!-- Node7&#45;&gt;Node6 -->
<g id="edge11_Node000007_Node000006" class="edge">
<title>Node7&#45;&gt;Node6</title>
<g id="a_edge11_Node000007_Node000006"><a xlink:title=" ">
<path fill="none" stroke="#63b8ff" d="M517.27,-60.46C509.99,-58.56 502.24,-56.62 495,-55 409,-35.73 385.91,-38.67 300,-19 299.9,-18.98 299.8,-18.95 299.7,-18.93"/>
<polygon fill="#63b8ff" stroke="#63b8ff" points="300.83,-15.61 290.29,-16.59 299.15,-22.4 300.83,-15.61"/>
</a>
</g>
</g>
<!-- Node8 -->
<g id="Node000008" class="node">
<title>Node8</title>
<g id="a_Node000008"><a xlink:title=" ">
<polygon fill="#e0e0e0" stroke="#999999" points="897,-19 775,-19 775,0 897,0 897,-19"/>
<text text-anchor="middle" x="836" y="-7" font-family="Helvetica,sans-Serif" font-size="10.00">boost/multi_array.hpp</text>
</a>
</g>
</g>
<!-- Node7&#45;&gt;Node8 -->
<g id="edge9_Node000007_Node000008" class="edge">
<title>Node7&#45;&gt;Node8</title>
<g id="a_edge9_Node000007_Node000008"><a xlink:title=" ">
<path fill="none" stroke="#63b8ff" d="M587.14,-61.05C638.21,-50.68 727.71,-32.5 784.32,-21"/>
<polygon fill="#63b8ff" stroke="#63b8ff" points="785.04,-24.42 794.14,-19 783.64,-17.56 785.04,-24.42"/>
</a>
</g>
</g>
<!-- Node9 -->
<g id="Node000009" class="node">
<title>Node9</title>
<g id="a_Node000009"><a xlink:title=" ">
<polygon fill="#e0e0e0" stroke="#999999" points="979,-19 915,-19 915,0 979,0 979,-19"/>
<text text-anchor="middle" x="947" y="-7" font-family="Helvetica,sans-Serif" font-size="10.00">algorithm</text>
</a>
</g>
</g>
<!-- Node7&#45;&gt;Node9 -->
<g id="edge10_Node000007_Node000009" class="edge">
<title>Node7&#45;&gt;Node9</title>
<g id="a_edge10_Node000007_Node000009"><a xlink:title=" ">
<path fill="none" stroke="#63b8ff" d="M587.07,-64.4C651.27,-56.64 783.32,-39.92 904.95,-19.08"/>
<polygon fill="#63b8ff" stroke="#63b8ff" points="905.55,-22.53 914.81,-17.38 904.36,-15.63 905.55,-22.53"/>
</a>
</g>
</g>
<!-- Node10 -->
<g id="Node000010" class="node">
<title>Node10</title>
<g id="a_Node000010"><a xlink:title=" ">
<polygon fill="#e0e0e0" stroke="#999999" points="1052.5,-19 997.5,-19 997.5,0 1052.5,0 1052.5,-19"/>
<text text-anchor="middle" x="1025" y="-7" font-family="Helvetica,sans-Serif" font-size="10.00">fstream</text>
</a>
</g>
</g>
<!-- Node7&#45;&gt;Node10 -->
<g id="edge12_Node000007_Node000010" class="edge">
<title>Node7&#45;&gt;Node10</title>
<g id="a_edge12_Node000007_Node000010"><a xlink:title=" ">
<path fill="none" stroke="#63b8ff" d="M587.05,-66.05C662.45,-60.03 833.43,-44.83 987.09,-18.96"/>
<polygon fill="#63b8ff" stroke="#63b8ff" points="987.92,-22.37 997.19,-17.24 986.74,-15.47 987.92,-22.37"/>
</a>
</g>
</g>
<!-- Node11 -->
<g id="Node000011" class="node">
<title>Node11</title>
<g id="a_Node000011"><a xlink:title=" ">
<polygon fill="#e0e0e0" stroke="#999999" points="361.5,-19 308.5,-19 308.5,0 361.5,0 361.5,-19"/>
<text text-anchor="middle" x="335" y="-7" font-family="Helvetica,sans-Serif" font-size="10.00">iterator</text>
</a>
</g>
</g>
<!-- Node7&#45;&gt;Node11 -->
<g id="edge13_Node000007_Node000011" class="edge">
<title>Node7&#45;&gt;Node11</title>
<g id="a_edge13_Node000007_Node000011"><a xlink:title=" ">
<path fill="none" stroke="#63b8ff" d="M517.03,-60.49C478.42,-49.89 412.52,-31.79 371.5,-20.52"/>
<polygon fill="#63b8ff" stroke="#63b8ff" points="372.2,-17.09 361.63,-17.81 370.35,-23.84 372.2,-17.09"/>
</a>
</g>
</g>
<!-- Node12 -->
<g id="Node000012" class="node">
<title>Node12</title>
<g id="a_Node000012"><a xlink:title=" ">
<polygon fill="#e0e0e0" stroke="#999999" points="436,-19 380,-19 380,0 436,0 436,-19"/>
<text text-anchor="middle" x="408" y="-7" font-family="Helvetica,sans-Serif" font-size="10.00">sstream</text>
</a>
</g>
</g>
<!-- Node7&#45;&gt;Node12 -->
<g id="edge14_Node000007_Node000012" class="edge">
<title>Node7&#45;&gt;Node12</title>
<g id="a_edge14_Node000007_Node000012"><a xlink:title=" ">
<path fill="none" stroke="#63b8ff" d="M527.64,-60.49C504,-50.62 464.8,-34.23 437.75,-22.93"/>
<polygon fill="#63b8ff" stroke="#63b8ff" points="438.96,-19.64 428.38,-19.02 436.26,-26.1 438.96,-19.64"/>
</a>
</g>
</g>
<!-- Node13 -->
<g id="Node000013" class="node">
<title>Node13</title>
<g id="a_Node000013"><a xlink:title=" ">
<polygon fill="#e0e0e0" stroke="#999999" points="498,-19 454,-19 454,0 498,0 498,-19"/>
<text text-anchor="middle" x="476" y="-7" font-family="Helvetica,sans-Serif" font-size="10.00">string</text>
</a>
</g>
</g>
<!-- Node7&#45;&gt;Node13 -->
<g id="edge15_Node000007_Node000013" class="edge">
<title>Node7&#45;&gt;Node13</title>
<g id="a_edge15_Node000007_Node000013"><a xlink:title=" ">
<path fill="none" stroke="#63b8ff" d="M537.38,-60.37C526.1,-51.21 508.08,-36.56 494.47,-25.51"/>
<polygon fill="#63b8ff" stroke="#63b8ff" points="496.64,-22.76 486.67,-19.17 492.22,-28.19 496.64,-22.76"/>
</a>
</g>
</g>
<!-- Node14 -->
<g id="Node000014" class="node">
<title>Node14</title>
<g id="a_Node000014"><a xlink:title=" ">
<polygon fill="#e0e0e0" stroke="#999999" points="580,-19 516,-19 516,0 580,0 580,-19"/>
<text text-anchor="middle" x="548" y="-7" font-family="Helvetica,sans-Serif" font-size="10.00">sys/stat.h</text>
</a>
</g>
</g>
<!-- Node7&#45;&gt;Node14 -->
<g id="edge16_Node000007_Node000014" class="edge">
<title>Node7&#45;&gt;Node14</title>
<g id="a_edge16_Node000007_Node000014"><a xlink:title=" ">
<path fill="none" stroke="#63b8ff" d="M548,-60.37C548,-52.25 548,-39.81 548,-29.39"/>
<polygon fill="#63b8ff" stroke="#63b8ff" points="551.5,-29.17 548,-19.17 544.5,-29.17 551.5,-29.17"/>
</a>
</g>
</g>
<!-- Node15 -->
<g id="Node000015" class="node">
<title>Node15</title>
<g id="a_Node000015"><a xlink:title=" ">
<polygon fill="#e0e0e0" stroke="#999999" points="645.5,-19 598.5,-19 598.5,0 645.5,0 645.5,-19"/>
<text text-anchor="middle" x="622" y="-7" font-family="Helvetica,sans-Serif" font-size="10.00">vector</text>
</a>
</g>
</g>
<!-- Node7&#45;&gt;Node15 -->
<g id="edge17_Node000007_Node000015" class="edge">
<title>Node7&#45;&gt;Node15</title>
<g id="a_edge17_Node000007_Node000015"><a xlink:title=" ">
<path fill="none" stroke="#63b8ff" d="M558.92,-60.37C570.51,-51.21 589.03,-36.56 603.02,-25.51"/>
<polygon fill="#63b8ff" stroke="#63b8ff" points="605.36,-28.11 611.04,-19.17 601.02,-22.62 605.36,-28.11"/>
</a>
</g>
</g>
<!-- Node16 -->
<g id="Node000016" class="node">
<title>Node16</title>
<g id="a_Node000016"><a xlink:title=" ">
<polygon fill="#e0e0e0" stroke="#999999" points="756.5,-19 663.5,-19 663.5,0 756.5,0 756.5,-19"/>
<text text-anchor="middle" x="710" y="-7" font-family="Helvetica,sans-Serif" font-size="10.00">unordered_map</text>
</a>
</g>
</g>
<!-- Node7&#45;&gt;Node16 -->
<g id="edge18_Node000007_Node000016" class="edge">
<title>Node7&#45;&gt;Node16</title>
<g id="a_edge18_Node000007_Node000016"><a xlink:title=" ">
<path fill="none" stroke="#63b8ff" d="M571.56,-60.49C599.27,-50.49 645.47,-33.8 676.81,-22.49"/>
<polygon fill="#63b8ff" stroke="#63b8ff" points="678.2,-25.71 686.42,-19.02 675.82,-19.12 678.2,-25.71"/>
</a>
</g>
</g>
</g>
</svg>
