<?xml version="1.0" encoding="UTF-8" standalone="no"?>
<!DOCTYPE svg PUBLIC "-//W3C//DTD SVG 1.1//EN"
 "http://www.w3.org/Graphics/SVG/1.1/DTD/svg11.dtd">
<!-- Generated by graphviz version 2.43.0 (0)
 -->
<!-- Title: src/include/internal/neighbours.hpp Pages: 1 -->
<svg width="538pt" height="225pt"
 viewBox="0.00 0.00 538.00 225.00" xmlns="http://www.w3.org/2000/svg" xmlns:xlink="http://www.w3.org/1999/xlink">
<g id="graph0" class="graph" transform="scale(1 1) rotate(0) translate(4 221)">
<title>src/include/internal/neighbours.hpp</title>
<!-- Node1 -->
<g id="Node000001" class="node">
<title>Node1</title>
<g id="a_Node000001"><a xlink:title="Header file for neighbour list generation.">
<polygon fill="#999999" stroke="#666666" points="321,-217 211,-217 211,-187 321,-187 321,-217"/>
<text text-anchor="start" x="219" y="-205" font-family="Helvetica,sans-Serif" font-size="10.00">src/include/internal</text>
<text text-anchor="middle" x="266" y="-194" font-family="Helvetica,sans-Serif" font-size="10.00">/neighbours.hpp</text>
</a>
</g>
</g>
<!-- Node2 -->
<g id="Node000002" class="node">
<title>Node2</title>
<g id="a_Node000002"><a xlink:href="bop_8hpp.html" target="_top" xlink:title="File for the bond order parameter analysis.">
<polygon fill="white" stroke="#666666" points="229,-151 119,-151 119,-121 229,-121 229,-151"/>
<text text-anchor="start" x="127" y="-139" font-family="Helvetica,sans-Serif" font-size="10.00">src/include/internal</text>
<text text-anchor="middle" x="174" y="-128" font-family="Helvetica,sans-Serif" font-size="10.00">/bop.hpp</text>
</a>
</g>
</g>
<!-- Node1&#45;&gt;Node2 -->
<g id="edge1_Node000001_Node000002" class="edge">
<title>Node1&#45;&gt;Node2</title>
<g id="a_edge1_Node000001_Node000002"><a xlink:title=" ">
<path fill="none" stroke="#63b8ff" d="M237.29,-181.03C223.37,-171.34 206.97,-159.94 194.36,-151.16"/>
<polygon fill="#63b8ff" stroke="#63b8ff" points="235.37,-183.96 245.58,-186.8 239.37,-178.21 235.37,-183.96"/>
</a>
</g>
</g>
<!-- Node4 -->
<g id="Node000004" class="node">
<title>Node4</title>
<g id="a_Node000004"><a xlink:href="cluster_8hpp.html" target="_top" xlink:title="File for the bond order parameter analysis.">
<polygon fill="white" stroke="#666666" points="110,-85 0,-85 0,-55 110,-55 110,-85"/>
<text text-anchor="start" x="8" y="-73" font-family="Helvetica,sans-Serif" font-size="10.00">src/include/internal</text>
<text text-anchor="middle" x="55" y="-62" font-family="Helvetica,sans-Serif" font-size="10.00">/cluster.hpp</text>
</a>
</g>
</g>
<!-- Node1&#45;&gt;Node4 -->
<g id="edge10_Node000001_Node000004" class="edge">
<title>Node1&#45;&gt;Node4</title>
<g id="a_edge10_Node000001_Node000004"><a xlink:title=" ">
<path fill="none" stroke="#63b8ff" d="M200.74,-190.14C170.93,-182.77 136.45,-170.67 110,-151 86.6,-133.6 69.71,-103.18 61.22,-85.29"/>
<polygon fill="#63b8ff" stroke="#63b8ff" points="200.12,-193.59 210.65,-192.46 201.71,-186.77 200.12,-193.59"/>
</a>
</g>
</g>
<!-- Node6 -->
<g id="Node000006" class="node">
<title>Node6</title>
<g id="a_Node000006"><a xlink:href="main_8cpp.html" target="_top" xlink:title=" ">
<polygon fill="white" stroke="#666666" points="286.5,-19 207.5,-19 207.5,0 286.5,0 286.5,-19"/>
<text text-anchor="middle" x="247" y="-7" font-family="Helvetica,sans-Serif" font-size="10.00">src/main.cpp</text>
</a>
</g>
</g>
<!-- Node1&#45;&gt;Node6 -->
<g id="edge11_Node000001_Node000006" class="edge">
<title>Node1&#45;&gt;Node6</title>
<g id="a_edge11_Node000001_Node000006"><a xlink:title=" ">
<path fill="none" stroke="#63b8ff" d="M263.6,-176.93C259.35,-134.28 250.67,-47.31 247.88,-19.36"/>
<polygon fill="#63b8ff" stroke="#63b8ff" points="260.13,-177.39 264.6,-186.99 267.09,-176.69 260.13,-177.39"/>
</a>
</g>
</g>
<!-- Node7 -->
<g id="Node000007" class="node">
<title>Node7</title>
<g id="a_Node000007"><a xlink:href="bulkTUM_8hpp.html" target="_top" xlink:title="File containing functions used specific to bulk topological unit matching (TUM) criterion.">
<polygon fill="white" stroke="#666666" points="404,-151 294,-151 294,-121 404,-121 404,-151"/>
<text text-anchor="start" x="302" y="-139" font-family="Helvetica,sans-Serif" font-size="10.00">src/include/internal</text>
<text text-anchor="middle" x="349" y="-128" font-family="Helvetica,sans-Serif" font-size="10.00">/bulkTUM.hpp</text>
</a>
</g>
</g>
<!-- Node1&#45;&gt;Node7 -->
<g id="edge7_Node000001_Node000007" class="edge">
<title>Node1&#45;&gt;Node7</title>
<g id="a_edge7_Node000001_Node000007"><a xlink:title=" ">
<path fill="none" stroke="#63b8ff" d="M292.61,-180.48C305.02,-170.91 319.47,-159.77 330.63,-151.16"/>
<polygon fill="#63b8ff" stroke="#63b8ff" points="290.2,-177.92 284.42,-186.8 294.48,-183.46 290.2,-177.92"/>
</a>
</g>
</g>
<!-- Node9 -->
<g id="Node000009" class="node">
<title>Node9</title>
<g id="a_Node000009"><a xlink:href="neighbours_8cpp.html" target="_top" xlink:title=" ">
<polygon fill="white" stroke="#666666" points="530,-145.5 422,-145.5 422,-126.5 530,-126.5 530,-145.5"/>
<text text-anchor="middle" x="476" y="-133.5" font-family="Helvetica,sans-Serif" font-size="10.00">src/neighbours.cpp</text>
</a>
</g>
</g>
<!-- Node1&#45;&gt;Node9 -->
<g id="edge12_Node000001_Node000009" class="edge">
<title>Node1&#45;&gt;Node9</title>
<g id="a_edge12_Node000001_Node000009"><a xlink:title=" ">
<path fill="none" stroke="#63b8ff" d="M321.87,-183.97C362.57,-171.57 415.98,-155.29 448.05,-145.52"/>
<polygon fill="#63b8ff" stroke="#63b8ff" points="320.63,-180.69 312.09,-186.95 322.67,-187.39 320.63,-180.69"/>
</a>
</g>
</g>
<!-- Node3 -->
<g id="Node000003" class="node">
<title>Node3</title>
<g id="a_Node000003"><a xlink:href="bop_8cpp.html" target="_top" xlink:title=" ">
<polygon fill="white" stroke="#666666" points="200,-79.5 128,-79.5 128,-60.5 200,-60.5 200,-79.5"/>
<text text-anchor="middle" x="164" y="-67.5" font-family="Helvetica,sans-Serif" font-size="10.00">src/bop.cpp</text>
</a>
</g>
</g>
<!-- Node2&#45;&gt;Node3 -->
<g id="edge2_Node000002_Node000003" class="edge">
<title>Node2&#45;&gt;Node3</title>
<g id="a_edge2_Node000002_Node000003"><a xlink:title=" ">
<path fill="none" stroke="#63b8ff" d="M170.19,-110.6C168.5,-99.8 166.62,-87.78 165.38,-79.84"/>
<polygon fill="#63b8ff" stroke="#63b8ff" points="166.78,-111.46 171.78,-120.8 173.69,-110.38 166.78,-111.46"/>
</a>
</g>
</g>
<!-- Node2&#45;&gt;Node4 -->
<g id="edge3_Node000002_Node000004" class="edge">
<title>Node2&#45;&gt;Node4</title>
<g id="a_edge3_Node000002_Node000004"><a xlink:title=" ">
<path fill="none" stroke="#63b8ff" d="M138.87,-116.11C120.35,-106.14 98.01,-94.13 81.05,-85.01"/>
<polygon fill="#63b8ff" stroke="#63b8ff" points="137.42,-119.3 147.88,-120.95 140.74,-113.14 137.42,-119.3"/>
</a>
</g>
</g>
<!-- Node2&#45;&gt;Node6 -->
<g id="edge6_Node000002_Node000006" class="edge">
<title>Node2&#45;&gt;Node6</title>
<g id="a_edge6_Node000002_Node000006"><a xlink:title=" ">
<path fill="none" stroke="#63b8ff" d="M190.64,-112.65C196.69,-104.16 203.41,-94.3 209,-85 222.76,-62.1 236.37,-33.63 242.94,-19.43"/>
<polygon fill="#63b8ff" stroke="#63b8ff" points="187.69,-110.76 184.65,-120.91 193.35,-114.87 187.69,-110.76"/>
</a>
</g>
</g>
<!-- Node5 -->
<g id="Node000005" class="node">
<title>Node5</title>
<g id="a_Node000005"><a xlink:href="cluster_8cpp.html" target="_top" xlink:title=" ">
<polygon fill="white" stroke="#666666" points="98,-19 12,-19 12,0 98,0 98,-19"/>
<text text-anchor="middle" x="55" y="-7" font-family="Helvetica,sans-Serif" font-size="10.00">src/cluster.cpp</text>
</a>
</g>
</g>
<!-- Node4&#45;&gt;Node5 -->
<g id="edge4_Node000004_Node000005" class="edge">
<title>Node4&#45;&gt;Node5</title>
<g id="a_edge4_Node000004_Node000005"><a xlink:title=" ">
<path fill="none" stroke="#63b8ff" d="M55,-44.75C55,-35.72 55,-26.03 55,-19.27"/>
<polygon fill="#63b8ff" stroke="#63b8ff" points="51.5,-44.84 55,-54.84 58.5,-44.84 51.5,-44.84"/>
</a>
</g>
</g>
<!-- Node4&#45;&gt;Node6 -->
<g id="edge5_Node000004_Node000006" class="edge">
<title>Node4&#45;&gt;Node6</title>
<g id="a_edge5_Node000004_Node000006"><a xlink:title=" ">
<path fill="none" stroke="#63b8ff" d="M110.74,-52.02C146.21,-41.21 190.64,-27.67 218.93,-19.05"/>
<polygon fill="#63b8ff" stroke="#63b8ff" points="109.53,-48.73 100.99,-54.99 111.57,-55.42 109.53,-48.73"/>
</a>
</g>
</g>
<!-- Node7&#45;&gt;Node6 -->
<g id="edge9_Node000007_Node000006" class="edge">
<title>Node7&#45;&gt;Node6</title>
<g id="a_edge9_Node000007_Node000006"><a xlink:title=" ">
<path fill="none" stroke="#63b8ff" d="M330.72,-112.69C307.82,-84.73 269.67,-38.17 254.02,-19.07"/>
<polygon fill="#63b8ff" stroke="#63b8ff" points="328.25,-115.2 337.3,-120.72 333.67,-110.76 328.25,-115.2"/>
</a>
</g>
</g>
<!-- Node8 -->
<g id="Node000008" class="node">
<title>Node8</title>
<g id="a_Node000008"><a xlink:href="bulkTUM_8cpp.html" target="_top" xlink:title=" ">
<polygon fill="white" stroke="#666666" points="430,-79.5 332,-79.5 332,-60.5 430,-60.5 430,-79.5"/>
<text text-anchor="middle" x="381" y="-67.5" font-family="Helvetica,sans-Serif" font-size="10.00">src/bulkTUM.cpp</text>
</a>
</g>
</g>
<!-- Node7&#45;&gt;Node8 -->
<g id="edge8_Node000007_Node000008" class="edge">
<title>Node7&#45;&gt;Node8</title>
<g id="a_edge8_Node000007_Node000008"><a xlink:title=" ">
<path fill="none" stroke="#63b8ff" d="M360.69,-111.61C366.22,-100.56 372.49,-88.03 376.58,-79.84"/>
<polygon fill="#63b8ff" stroke="#63b8ff" points="357.44,-110.29 356.1,-120.8 363.7,-113.42 357.44,-110.29"/>
</a>
</g>
</g>
</g>
</svg>
