<?xml version="1.0" encoding="UTF-8" standalone="no"?>
<!DOCTYPE svg PUBLIC "-//W3C//DTD SVG 1.1//EN"
 "http://www.w3.org/Graphics/SVG/1.1/DTD/svg11.dtd">
<!-- Generated by graphviz version 2.43.0 (0)
 -->
<!-- Title: src/include/internal/pntCorrespondence.hpp Pages: 1 -->
<svg width="493pt" height="291pt"
 viewBox="0.00 0.00 492.50 291.00" xmlns="http://www.w3.org/2000/svg" xmlns:xlink="http://www.w3.org/1999/xlink">

<svg id="main" version="1.1" xmlns="http://www.w3.org/2000/svg" xmlns:xlink="http://www.w3.org/1999/xlink" xml:space="preserve" onload="init(evt)">
<style type="text/css"><![CDATA[
.node, .edge {opacity: 0.7;}
.node.selected, .edge.selected {opacity: 1;}
.edge:hover path { stroke: red; }
.edge:hover polygon { stroke: red; fill: red; }
]]></style>
<script type="application/ecmascript" xlink:href="svg.min.js"/>
<svg id="graph" class="graph">
<g id="graph0" class="graph" transform="scale(1 1) rotate(0) translate(4 287)">
<title>src/include/internal/pntCorrespondence.hpp</title>
<!-- Node1 -->
<g id="Node000001" class="node">
<title>Node1</title>
<g id="a_Node000001"><a xlink:title=" ">
<polygon fill="#999999" stroke="#666666" points="299.5,-283 164.5,-283 164.5,-253 299.5,-253 299.5,-283"/>
<text text-anchor="start" x="172.5" y="-271" font-family="Helvetica,sans-Serif" font-size="10.00">src/include/internal</text>
<text text-anchor="middle" x="232" y="-260" font-family="Helvetica,sans-Serif" font-size="10.00">/pntCorrespondence.hpp</text>
</a>
</g>
</g>
<!-- Node2 -->
<g id="Node000002" class="node">
<title>Node2</title>
<g id="a_Node000002"><a xlink:href="bulkTUM_8hpp.html" target="_top" xlink:title="File containing functions used specific to bulk topological unit matching (TUM) criterion.">
<polygon fill="white" stroke="#666666" points="116,-85 6,-85 6,-55 116,-55 116,-85"/>
<text text-anchor="start" x="14" y="-73" font-family="Helvetica,sans-Serif" font-size="10.00">src/include/internal</text>
<text text-anchor="middle" x="61" y="-62" font-family="Helvetica,sans-Serif" font-size="10.00">/bulkTUM.hpp</text>
</a>
</g>
</g>
<!-- Node1&#45;&gt;Node2 -->
<g id="edge1_Node000001_Node000002" class="edge">
<title>Node1&#45;&gt;Node2</title>
<g id="a_edge1_Node000001_Node000002"><a xlink:title=" ">
<path fill="none" stroke="#63b8ff" d="M202.62,-246.6C173.88,-225.43 130.4,-190 102,-151 86.47,-129.68 73.58,-101.64 66.61,-85.05"/>
<polygon fill="#63b8ff" stroke="#63b8ff" points="200.88,-249.67 211.03,-252.7 204.99,-244 200.88,-249.67"/>
</a>
</g>
</g>
<!-- Node5 -->
<g id="Node000005" class="node">
<title>Node5</title>
<g id="a_Node000005"><a xlink:href="shapeMatch_8hpp.html" target="_top" xlink:title=" ">
<polygon fill="white" stroke="#666666" points="287,-217 177,-217 177,-187 287,-187 287,-217"/>
<text text-anchor="start" x="185" y="-205" font-family="Helvetica,sans-Serif" font-size="10.00">src/include/internal</text>
<text text-anchor="middle" x="232" y="-194" font-family="Helvetica,sans-Serif" font-size="10.00">/shapeMatch.hpp</text>
</a>
</g>
</g>
<!-- Node1&#45;&gt;Node5 -->
<g id="edge4_Node000001_Node000005" class="edge">
<title>Node1&#45;&gt;Node5</title>
<g id="a_edge4_Node000001_Node000005"><a xlink:title=" ">
<path fill="none" stroke="#63b8ff" d="M232,-242.54C232,-233.96 232,-224.61 232,-217.16"/>
<polygon fill="#63b8ff" stroke="#63b8ff" points="228.5,-242.8 232,-252.8 235.5,-242.8 228.5,-242.8"/>
</a>
</g>
</g>
<!-- Node11 -->
<g id="Node000011" class="node">
<title>Node11</title>
<g id="a_Node000011"><a xlink:href="pntCorrespondence_8cpp.html" target="_top" xlink:title=" ">
<polygon fill="white" stroke="#666666" points="454.5,-211.5 305.5,-211.5 305.5,-192.5 454.5,-192.5 454.5,-211.5"/>
<text text-anchor="middle" x="380" y="-199.5" font-family="Helvetica,sans-Serif" font-size="10.00">src/pntCorrespondence.cpp</text>
</a>
</g>
</g>
<!-- Node1&#45;&gt;Node11 -->
<g id="edge13_Node000001_Node000011" class="edge">
<title>Node1&#45;&gt;Node11</title>
<g id="a_edge13_Node000001_Node000011"><a xlink:title=" ">
<path fill="none" stroke="#63b8ff" d="M273.76,-248.94C302.12,-236.68 338.32,-221.02 360.3,-211.52"/>
<polygon fill="#63b8ff" stroke="#63b8ff" points="272.27,-245.77 264.48,-252.95 275.05,-252.2 272.27,-245.77"/>
</a>
</g>
</g>
<!-- Node3 -->
<g id="Node000003" class="node">
<title>Node3</title>
<g id="a_Node000003"><a xlink:href="bulkTUM_8cpp.html" target="_top" xlink:title=" ">
<polygon fill="white" stroke="#666666" points="98,-19 0,-19 0,0 98,0 98,-19"/>
<text text-anchor="middle" x="49" y="-7" font-family="Helvetica,sans-Serif" font-size="10.00">src/bulkTUM.cpp</text>
</a>
</g>
</g>
<!-- Node2&#45;&gt;Node3 -->
<g id="edge2_Node000002_Node000003" class="edge">
<title>Node2&#45;&gt;Node3</title>
<g id="a_edge2_Node000002_Node000003"><a xlink:title=" ">
<path fill="none" stroke="#63b8ff" d="M56.03,-44.75C54.17,-35.72 52.18,-26.03 50.8,-19.27"/>
<polygon fill="#63b8ff" stroke="#63b8ff" points="52.66,-45.75 58.1,-54.84 59.51,-44.34 52.66,-45.75"/>
</a>
</g>
</g>
<!-- Node4 -->
<g id="Node000004" class="node">
<title>Node4</title>
<g id="a_Node000004"><a xlink:href="main_8cpp.html" target="_top" xlink:title=" ">
<polygon fill="white" stroke="#666666" points="195.5,-19 116.5,-19 116.5,0 195.5,0 195.5,-19"/>
<text text-anchor="middle" x="156" y="-7" font-family="Helvetica,sans-Serif" font-size="10.00">src/main.cpp</text>
</a>
</g>
</g>
<!-- Node2&#45;&gt;Node4 -->
<g id="edge3_Node000002_Node000004" class="edge">
<title>Node2&#45;&gt;Node4</title>
<g id="a_edge3_Node000002_Node000004"><a xlink:title=" ">
<path fill="none" stroke="#63b8ff" d="M92.91,-49.35C109.6,-39.07 129.17,-27.02 142.04,-19.09"/>
<polygon fill="#63b8ff" stroke="#63b8ff" points="90.68,-46.61 84,-54.84 94.35,-52.58 90.68,-46.61"/>
</a>
</g>
</g>
<!-- Node6 -->
<g id="Node000006" class="node">
<title>Node6</title>
<g id="a_Node000006"><a xlink:href="topo__bulk_8hpp.html" target="_top" xlink:title="File containing functions used specific to bulk topological network critera.">
<polygon fill="white" stroke="#666666" points="221,-151 111,-151 111,-121 221,-121 221,-151"/>
<text text-anchor="start" x="119" y="-139" font-family="Helvetica,sans-Serif" font-size="10.00">src/include/internal</text>
<text text-anchor="middle" x="166" y="-128" font-family="Helvetica,sans-Serif" font-size="10.00">/topo_bulk.hpp</text>
</a>
</g>
</g>
<!-- Node5&#45;&gt;Node6 -->
<g id="edge5_Node000005_Node000006" class="edge">
<title>Node5&#45;&gt;Node6</title>
<g id="a_edge5_Node000005_Node000006"><a xlink:title=" ">
<path fill="none" stroke="#63b8ff" d="M209.98,-179.65C200.31,-170.27 189.23,-159.53 180.61,-151.16"/>
<polygon fill="#63b8ff" stroke="#63b8ff" points="207.74,-182.35 217.35,-186.8 212.61,-177.32 207.74,-182.35"/>
</a>
</g>
</g>
<!-- Node8 -->
<g id="Node000008" class="node">
<title>Node8</title>
<g id="a_Node000008"><a xlink:href="topo__one__dim_8hpp.html" target="_top" xlink:title="File containing functions used specific to quasi&#45;one&#45;dimensional topological network critera (the pri...">
<polygon fill="white" stroke="#666666" points="353,-151 243,-151 243,-121 353,-121 353,-151"/>
<text text-anchor="start" x="251" y="-139" font-family="Helvetica,sans-Serif" font-size="10.00">src/include/internal</text>
<text text-anchor="middle" x="298" y="-128" font-family="Helvetica,sans-Serif" font-size="10.00">/topo_one_dim.hpp</text>
</a>
</g>
</g>
<!-- Node5&#45;&gt;Node8 -->
<g id="edge9_Node000005_Node000008" class="edge">
<title>Node5&#45;&gt;Node8</title>
<g id="a_edge9_Node000005_Node000008"><a xlink:title=" ">
<path fill="none" stroke="#63b8ff" d="M254.02,-179.65C263.69,-170.27 274.77,-159.53 283.39,-151.16"/>
<polygon fill="#63b8ff" stroke="#63b8ff" points="251.39,-177.32 246.65,-186.8 256.26,-182.35 251.39,-177.32"/>
</a>
</g>
</g>
<!-- Node10 -->
<g id="Node000010" class="node">
<title>Node10</title>
<g id="a_Node000010"><a xlink:href="shapeMatch_8cpp.html" target="_top" xlink:title=" ">
<polygon fill="white" stroke="#666666" points="484.5,-145.5 371.5,-145.5 371.5,-126.5 484.5,-126.5 484.5,-145.5"/>
<text text-anchor="middle" x="428" y="-133.5" font-family="Helvetica,sans-Serif" font-size="10.00">src/shapeMatch.cpp</text>
</a>
</g>
</g>
<!-- Node5&#45;&gt;Node10 -->
<g id="edge12_Node000005_Node000010" class="edge">
<title>Node5&#45;&gt;Node10</title>
<g id="a_edge12_Node000005_Node000010"><a xlink:title=" ">
<path fill="none" stroke="#63b8ff" d="M284.87,-183.74C322.76,-171.36 372.17,-155.23 401.92,-145.52"/>
<polygon fill="#63b8ff" stroke="#63b8ff" points="283.43,-180.52 275.01,-186.95 285.61,-187.18 283.43,-180.52"/>
</a>
</g>
</g>
<!-- Node6&#45;&gt;Node2 -->
<g id="edge6_Node000006_Node000002" class="edge">
<title>Node6&#45;&gt;Node2</title>
<g id="a_edge6_Node000006_Node000002"><a xlink:title=" ">
<path fill="none" stroke="#63b8ff" d="M134.33,-115.69C118.12,-105.82 98.75,-94.01 83.99,-85.01"/>
<polygon fill="#63b8ff" stroke="#63b8ff" points="132.6,-118.74 142.96,-120.95 136.24,-112.76 132.6,-118.74"/>
</a>
</g>
</g>
<!-- Node6&#45;&gt;Node4 -->
<g id="edge7_Node000006_Node000004" class="edge">
<title>Node6&#45;&gt;Node4</title>
<g id="a_edge7_Node000006_Node000004"><a xlink:title=" ">
<path fill="none" stroke="#63b8ff" d="M164.03,-110.48C161.77,-82.34 158.18,-37.67 156.69,-19.07"/>
<polygon fill="#63b8ff" stroke="#63b8ff" points="160.56,-111.03 164.85,-120.72 167.54,-110.47 160.56,-111.03"/>
</a>
</g>
</g>
<!-- Node7 -->
<g id="Node000007" class="node">
<title>Node7</title>
<g id="a_Node000007"><a xlink:href="topo__bulk_8cpp.html" target="_top" xlink:title=" ">
<polygon fill="white" stroke="#666666" points="274,-79.5 172,-79.5 172,-60.5 274,-60.5 274,-79.5"/>
<text text-anchor="middle" x="223" y="-67.5" font-family="Helvetica,sans-Serif" font-size="10.00">src/topo_bulk.cpp</text>
</a>
</g>
</g>
<!-- Node6&#45;&gt;Node7 -->
<g id="edge8_Node000006_Node000007" class="edge">
<title>Node6&#45;&gt;Node7</title>
<g id="a_edge8_Node000006_Node000007"><a xlink:title=" ">
<path fill="none" stroke="#63b8ff" d="M185.35,-113.27C195.54,-101.84 207.47,-88.44 215.12,-79.84"/>
<polygon fill="#63b8ff" stroke="#63b8ff" points="182.69,-111 178.65,-120.8 187.91,-115.66 182.69,-111"/>
</a>
</g>
</g>
<!-- Node8&#45;&gt;Node4 -->
<g id="edge10_Node000008_Node000004" class="edge">
<title>Node8&#45;&gt;Node4</title>
<g id="a_edge10_Node000008_Node000004"><a xlink:title=" ">
<path fill="none" stroke="#63b8ff" d="M299.5,-110.75C299.28,-93.31 296.11,-70.27 283,-55 261.23,-29.65 224.16,-18.74 195.67,-14.04"/>
<polygon fill="#63b8ff" stroke="#63b8ff" points="296.01,-110.71 299.33,-120.77 303,-110.83 296.01,-110.71"/>
</a>
</g>
</g>
<!-- Node9 -->
<g id="Node000009" class="node">
<title>Node9</title>
<g id="a_Node000009"><a xlink:href="topo__one__dim_8cpp.html" target="_top" xlink:title=" ">
<polygon fill="white" stroke="#666666" points="453.5,-79.5 330.5,-79.5 330.5,-60.5 453.5,-60.5 453.5,-79.5"/>
<text text-anchor="middle" x="392" y="-67.5" font-family="Helvetica,sans-Serif" font-size="10.00">src/topo_one_dim.cpp</text>
</a>
</g>
</g>
<!-- Node8&#45;&gt;Node9 -->
<g id="edge11_Node000008_Node000009" class="edge">
<title>Node8&#45;&gt;Node9</title>
<g id="a_edge11_Node000008_Node000009"><a xlink:title=" ">
<path fill="none" stroke="#63b8ff" d="M327.56,-114.87C344.96,-103.03 366.08,-88.65 379.28,-79.66"/>
<polygon fill="#63b8ff" stroke="#63b8ff" points="325.16,-112.28 318.86,-120.8 329.1,-118.06 325.16,-112.28"/>
</a>
</g>
</g>
</g>
</svg>
</svg>

<style type='text/css'>
<![CDATA[
[data-mouse-over-selected='false'] { opacity: 0.7; }
[data-mouse-over-selected='true']  { opacity: 1.0; }
]]>
</style>
<script type="application/ecmascript"><![CDATA[
document.addEventListener('DOMContentLoaded', (event) => {
  highlightEdges();
  highlightAdjacentNodes();
});
]]></script>
</svg>
