<?xml version="1.0" encoding="UTF-8" standalone="no"?>
<!DOCTYPE svg PUBLIC "-//W3C//DTD SVG 1.1//EN"
 "http://www.w3.org/Graphics/SVG/1.1/DTD/svg11.dtd">
<!-- Generated by graphviz version 2.43.0 (0)
 -->
<!-- Title: src/include/internal/rdf2d.hpp Pages: 1 -->
<svg width="186pt" height="93pt"
 viewBox="0.00 0.00 185.50 93.00" xmlns="http://www.w3.org/2000/svg" xmlns:xlink="http://www.w3.org/1999/xlink">
<g id="graph0" class="graph" transform="scale(1 1) rotate(0) translate(4 89)">
<title>src/include/internal/rdf2d.hpp</title>
<!-- Node1 -->
<g id="Node000001" class="node">
<title>Node1</title>
<g id="a_Node000001"><a xlink:title="File containing functions used to calculate the in&#45;plane radial distribution functions.">
<polygon fill="#999999" stroke="#666666" points="143.5,-85 33.5,-85 33.5,-55 143.5,-55 143.5,-85"/>
<text text-anchor="start" x="41.5" y="-73" font-family="Helvetica,sans-Serif" font-size="10.00">src/include/internal</text>
<text text-anchor="middle" x="88.5" y="-62" font-family="Helvetica,sans-Serif" font-size="10.00">/rdf2d.hpp</text>
</a>
</g>
</g>
<!-- Node2 -->
<g id="Node000002" class="node">
<title>Node2</title>
<g id="a_Node000002"><a xlink:href="main_8cpp.html" target="_top" xlink:title=" ">
<polygon fill="white" stroke="#666666" points="79,-19 0,-19 0,0 79,0 79,-19"/>
<text text-anchor="middle" x="39.5" y="-7" font-family="Helvetica,sans-Serif" font-size="10.00">src/main.cpp</text>
</a>
</g>
</g>
<!-- Node1&#45;&gt;Node2 -->
<g id="edge1_Node000001_Node000002" class="edge">
<title>Node1&#45;&gt;Node2</title>
<g id="a_edge1_Node000001_Node000002"><a xlink:title=" ">
<path fill="none" stroke="#63b8ff" d="M70.15,-47.09C62.05,-37.42 53,-26.61 46.84,-19.27"/>
<polygon fill="#63b8ff" stroke="#63b8ff" points="67.53,-49.42 76.64,-54.84 72.9,-44.93 67.53,-49.42"/>
</a>
</g>
</g>
<!-- Node3 -->
<g id="Node000003" class="node">
<title>Node3</title>
<g id="a_Node000003"><a xlink:href="rdf2d_8cpp.html" target="_top" xlink:title=" ">
<polygon fill="white" stroke="#666666" points="177.5,-19 97.5,-19 97.5,0 177.5,0 177.5,-19"/>
<text text-anchor="middle" x="137.5" y="-7" font-family="Helvetica,sans-Serif" font-size="10.00">src/rdf2d.cpp</text>
</a>
</g>
</g>
<!-- Node1&#45;&gt;Node3 -->
<g id="edge2_Node000001_Node000003" class="edge">
<title>Node1&#45;&gt;Node3</title>
<g id="a_edge2_Node000001_Node000003"><a xlink:title=" ">
<path fill="none" stroke="#63b8ff" d="M106.85,-47.09C114.95,-37.42 124,-26.61 130.16,-19.27"/>
<polygon fill="#63b8ff" stroke="#63b8ff" points="104.1,-44.93 100.36,-54.84 109.47,-49.42 104.1,-44.93"/>
</a>
</g>
</g>
</g>
</svg>
