<?xml version="1.0" encoding="UTF-8" standalone="no"?>
<!DOCTYPE svg PUBLIC "-//W3C//DTD SVG 1.1//EN"
 "http://www.w3.org/Graphics/SVG/1.1/DTD/svg11.dtd">
<!-- Generated by graphviz version 2.43.0 (0)
 -->
<!-- Title: src/include/internal/topo_bulk.hpp Pages: 1 -->
<svg width="294pt" height="159pt"
 viewBox="0.00 0.00 294.00 159.00" xmlns="http://www.w3.org/2000/svg" xmlns:xlink="http://www.w3.org/1999/xlink">
<g id="graph0" class="graph" transform="scale(1 1) rotate(0) translate(4 155)">
<title>src/include/internal/topo_bulk.hpp</title>
<!-- Node1 -->
<g id="Node000001" class="node">
<title>Node1</title>
<g id="a_Node000001"><a xlink:title="File containing functions used specific to bulk topological network critera.">
<polygon fill="#999999" stroke="#666666" points="211,-151 101,-151 101,-121 211,-121 211,-151"/>
<text text-anchor="start" x="109" y="-139" font-family="Helvetica,sans-Serif" font-size="10.00">src/include/internal</text>
<text text-anchor="middle" x="156" y="-128" font-family="Helvetica,sans-Serif" font-size="10.00">/topo_bulk.hpp</text>
</a>
</g>
</g>
<!-- Node2 -->
<g id="Node000002" class="node">
<title>Node2</title>
<g id="a_Node000002"><a xlink:href="bulkTUM_8hpp.html" target="_top" xlink:title="File containing functions used specific to bulk topological unit matching (TUM) criterion.">
<polygon fill="white" stroke="#666666" points="128,-85 18,-85 18,-55 128,-55 128,-85"/>
<text text-anchor="start" x="26" y="-73" font-family="Helvetica,sans-Serif" font-size="10.00">src/include/internal</text>
<text text-anchor="middle" x="73" y="-62" font-family="Helvetica,sans-Serif" font-size="10.00">/bulkTUM.hpp</text>
</a>
</g>
</g>
<!-- Node1&#45;&gt;Node2 -->
<g id="edge1_Node000001_Node000002" class="edge">
<title>Node1&#45;&gt;Node2</title>
<g id="a_edge1_Node000001_Node000002"><a xlink:title=" ">
<path fill="none" stroke="#63b8ff" d="M129.39,-114.48C116.98,-104.91 102.53,-93.77 91.37,-85.16"/>
<polygon fill="#63b8ff" stroke="#63b8ff" points="127.52,-117.46 137.58,-120.8 131.8,-111.92 127.52,-117.46"/>
</a>
</g>
</g>
<!-- Node4 -->
<g id="Node000004" class="node">
<title>Node4</title>
<g id="a_Node000004"><a xlink:href="main_8cpp.html" target="_top" xlink:title=" ">
<polygon fill="white" stroke="#666666" points="195.5,-19 116.5,-19 116.5,0 195.5,0 195.5,-19"/>
<text text-anchor="middle" x="156" y="-7" font-family="Helvetica,sans-Serif" font-size="10.00">src/main.cpp</text>
</a>
</g>
</g>
<!-- Node1&#45;&gt;Node4 -->
<g id="edge4_Node000001_Node000004" class="edge">
<title>Node1&#45;&gt;Node4</title>
<g id="a_edge4_Node000001_Node000004"><a xlink:title=" ">
<path fill="none" stroke="#63b8ff" d="M156,-110.48C156,-82.34 156,-37.67 156,-19.07"/>
<polygon fill="#63b8ff" stroke="#63b8ff" points="152.5,-110.72 156,-120.72 159.5,-110.72 152.5,-110.72"/>
</a>
</g>
</g>
<!-- Node5 -->
<g id="Node000005" class="node">
<title>Node5</title>
<g id="a_Node000005"><a xlink:href="topo__bulk_8cpp.html" target="_top" xlink:title=" ">
<polygon fill="white" stroke="#666666" points="286,-79.5 184,-79.5 184,-60.5 286,-60.5 286,-79.5"/>
<text text-anchor="middle" x="235" y="-67.5" font-family="Helvetica,sans-Serif" font-size="10.00">src/topo_bulk.cpp</text>
</a>
</g>
</g>
<!-- Node1&#45;&gt;Node5 -->
<g id="edge5_Node000001_Node000005" class="edge">
<title>Node1&#45;&gt;Node5</title>
<g id="a_edge5_Node000001_Node000005"><a xlink:title=" ">
<path fill="none" stroke="#63b8ff" d="M181.6,-114.26C195.98,-102.61 213.17,-88.69 224.08,-79.84"/>
<polygon fill="#63b8ff" stroke="#63b8ff" points="179.1,-111.78 173.53,-120.8 183.51,-117.22 179.1,-111.78"/>
</a>
</g>
</g>
<!-- Node3 -->
<g id="Node000003" class="node">
<title>Node3</title>
<g id="a_Node000003"><a xlink:href="bulkTUM_8cpp.html" target="_top" xlink:title=" ">
<polygon fill="white" stroke="#666666" points="98,-19 0,-19 0,0 98,0 98,-19"/>
<text text-anchor="middle" x="49" y="-7" font-family="Helvetica,sans-Serif" font-size="10.00">src/bulkTUM.cpp</text>
</a>
</g>
</g>
<!-- Node2&#45;&gt;Node3 -->
<g id="edge2_Node000002_Node000003" class="edge">
<title>Node2&#45;&gt;Node3</title>
<g id="a_edge2_Node000002_Node000003"><a xlink:title=" ">
<path fill="none" stroke="#63b8ff" d="M63.29,-45.34C59.52,-36.14 55.43,-26.17 52.6,-19.27"/>
<polygon fill="#63b8ff" stroke="#63b8ff" points="60.16,-46.92 67.19,-54.84 66.63,-44.26 60.16,-46.92"/>
</a>
</g>
</g>
<!-- Node2&#45;&gt;Node4 -->
<g id="edge3_Node000002_Node000004" class="edge">
<title>Node2&#45;&gt;Node4</title>
<g id="a_edge3_Node000002_Node000004"><a xlink:title=" ">
<path fill="none" stroke="#63b8ff" d="M101.64,-48.82C115.94,-38.73 132.51,-27.05 143.56,-19.27"/>
<polygon fill="#63b8ff" stroke="#63b8ff" points="99.25,-46.22 93.09,-54.84 103.28,-51.94 99.25,-46.22"/>
</a>
</g>
</g>
</g>
</svg>
